<svg width="38" height="38" viewBox="0 0 38 38" fill="none" xmlns="http://www.w3.org/2000/svg">
<path d="M36.3648 19.0014C36.3647 22.4352 35.3463 25.7919 33.4385 28.647C31.5307 31.5021 28.8191 33.7273 25.6466 35.0413C22.4741 36.3554 18.9832 36.6991 15.6154 36.0292C12.2475 35.3593 9.15396 33.7057 6.72587 31.2776C4.29777 28.8495 2.64421 25.7559 1.97427 22.3881C1.30433 19.0202 1.64811 15.5293 2.96212 12.3569C4.27614 9.18438 6.50139 6.47278 9.35647 4.56497C12.2116 2.65715 15.5682 1.63879 19.0021 1.63867C21.2822 1.63859 23.54 2.08764 25.6466 2.96016C27.7532 3.83269 29.6673 5.11162 31.2795 6.72391C32.8918 8.3362 34.1708 10.2503 35.0433 12.3569C35.9158 14.4634 36.3649 16.7212 36.3648 19.0014Z" fill="white" stroke="#213368" stroke-width="2" stroke-linecap="round" stroke-linejoin="round"/>
<path d="M14.9617 12.2603C14.8431 12.2726 14.7231 12.2595 14.6099 12.2218C14.4967 12.1841 14.3929 12.1227 14.3053 12.0417C14.2177 11.9607 14.1483 11.8619 14.1019 11.752C14.0555 11.6421 14.033 11.5236 14.036 11.4043C14.0337 11.1883 14.1146 10.9797 14.2619 10.8217C14.3545 10.7331 14.4649 10.6652 14.5858 10.6226C14.7067 10.5801 14.8353 10.5638 14.963 10.5749H23.7579C23.8765 10.5625 23.9964 10.5755 24.1096 10.6131C24.2228 10.6507 24.3267 10.7121 24.4143 10.793C24.5019 10.874 24.5713 10.9727 24.6177 11.0826C24.6642 11.1924 24.6866 11.311 24.6836 11.4302C24.6861 11.6461 24.6054 11.8547 24.4583 12.0128C24.3657 12.1014 24.2553 12.1692 24.1344 12.2118C24.0135 12.2543 23.885 12.2707 23.7573 12.2597H22.4736C21.9186 12.2597 21.4512 12.2516 21.0715 12.2356C20.841 12.2315 20.6109 12.2157 20.3821 12.1881V12.2831C20.7518 12.4526 21.0833 12.6953 21.3566 12.9965C21.6885 13.3557 21.9327 13.7868 22.07 14.2561H23.7579C23.8766 14.2437 23.9965 14.2568 24.1098 14.2944C24.223 14.3321 24.327 14.3935 24.4146 14.4745C24.5022 14.5555 24.5715 14.6543 24.6179 14.7643C24.6643 14.8742 24.6867 14.9928 24.6836 15.1121C24.686 15.3278 24.6054 15.5362 24.4583 15.6941C24.3658 15.7828 24.2554 15.8507 24.1345 15.8933C24.0136 15.9358 23.885 15.9521 23.7573 15.9409H22.1885C22.139 16.5585 21.9574 17.1581 21.6561 17.6994C21.3548 18.2407 20.9407 18.711 20.442 19.0785C19.9878 19.4126 19.4818 19.6697 18.9442 19.8394C18.423 20.0084 17.885 20.12 17.3396 20.1721L22.7088 25.3301C22.827 25.4395 22.9217 25.5718 22.987 25.7189C23.0524 25.8661 23.0871 26.0251 23.0889 26.1861C23.0966 26.467 22.9943 26.7398 22.8038 26.9464C22.7028 27.0511 22.5805 27.1328 22.4452 27.186C22.3098 27.2393 22.1646 27.2628 22.0194 27.255C21.8457 27.2552 21.6731 27.227 21.5084 27.1717C21.3137 27.0977 21.1388 26.9796 20.9974 26.8267L14.6754 20.651C14.5181 20.5148 14.3889 20.3492 14.2952 20.1634C14.2175 20.0045 14.1771 19.83 14.1768 19.653C14.1723 19.5156 14.1952 19.3786 14.2442 19.2501C14.2931 19.1216 14.3671 19.0041 14.4619 18.9044C14.5569 18.8059 14.6716 18.7285 14.7986 18.6772C14.9256 18.626 15.0619 18.6021 15.1987 18.607H15.5073C15.9974 18.6073 16.4864 18.5637 16.9687 18.4768C17.4263 18.3984 17.868 18.2458 18.2764 18.025C18.6558 17.8185 18.9912 17.5398 19.2638 17.2048C19.5469 16.8386 19.7273 16.4036 19.7866 15.9446H14.9611C14.8425 15.9569 14.7225 15.9438 14.6093 15.9061C14.4961 15.8684 14.3922 15.807 14.3046 15.726C14.217 15.645 14.1477 15.5463 14.1013 15.4364C14.0549 15.3265 14.0324 15.2079 14.0354 15.0886C14.033 14.8728 14.1139 14.6644 14.2613 14.5067C14.3538 14.418 14.4642 14.3501 14.5851 14.3075C14.706 14.2649 14.8347 14.2487 14.9624 14.2598H19.6693C19.2579 12.9289 18.0456 12.2634 16.0325 12.2634L14.9617 12.2603Z" fill="#00BAF2" stroke="white" stroke-width="0.383" stroke-miterlimit="10"/>
<path d="M7.74609 30.846L31.4339 7.1582" stroke="#213368" stroke-width="2" stroke-linecap="round" stroke-linejoin="round"/>
</svg>
