<svg width="35" height="35" viewBox="0 0 35 35" fill="none" xmlns="http://www.w3.org/2000/svg">
<path d="M20.7205 5.18826C20.7205 5.18826 19.2663 13.2848 29.8933 14.3281C30.1006 24.8398 30.4861 27.5969 29.8933 28.9175C29.3006 30.2382 27.696 33.5306 23.0677 33.7109C18.4394 33.8913 7.48724 33.4311 7.48724 33.4311C7.48724 33.4311 2.08432 31.8935 1.85016 27.0057C1.61601 22.1178 1.85016 10.6044 1.85016 10.6044C1.85016 10.6044 3.7407 5.4976 8.64432 5.18826C13.5479 4.87893 20.7205 5.18826 20.7205 5.18826Z" fill="white"/>
<path d="M30.0938 14.4004V26.6727C30.0938 27.5516 29.9206 28.422 29.5843 29.234C29.2479 30.046 28.7549 30.7839 28.1334 31.4054C27.5119 32.0269 26.7741 32.5199 25.962 32.8563C25.15 33.1926 24.2796 33.3657 23.4007 33.3657H8.59738C6.82226 33.3657 5.11985 32.6606 3.86465 31.4054C2.60946 30.1502 1.9043 28.4478 1.9043 26.6727V11.8694C1.90423 10.9904 2.0773 10.12 2.41363 9.30788C2.74996 8.49578 3.24296 7.75788 3.86447 7.13632C4.48599 6.51475 5.22385 6.0217 6.03593 5.68531C6.848 5.34892 7.71839 5.17578 8.59738 5.17578H20.3632" stroke="#213368" stroke-width="2" stroke-linecap="round" stroke-linejoin="round"/>
<path d="M34.173 6.27257C34.1729 7.46594 33.8189 8.63247 33.1559 9.62467C32.4928 10.6169 31.5504 11.3901 30.4478 11.8467C29.3452 12.3033 28.132 12.4227 26.9616 12.1898C25.7912 11.9569 24.7161 11.3821 23.8724 10.5382C23.0286 9.69431 22.454 8.61915 22.2213 7.44869C21.9886 6.27823 22.1082 5.06505 22.565 3.96256C23.0217 2.86007 23.7952 1.91779 24.7875 1.25487C25.7798 0.591958 26.9464 0.238181 28.1398 0.238281C28.9322 0.238215 29.7169 0.39425 30.4491 0.697478C31.1812 1.00071 31.8464 1.44519 32.4068 2.00553C32.9671 2.56588 33.4116 3.23112 33.7148 3.96327C34.0181 4.69541 34.1741 5.48011 34.174 6.27257" fill="#00BCF1"/>
<path d="M31.5304 3.98047L26.9473 8.56358" stroke="white" stroke-width="2" stroke-linecap="round" stroke-linejoin="round"/>
<path d="M24.748 6.36328L26.9484 8.56366" stroke="white" stroke-width="2" stroke-linecap="round" stroke-linejoin="round"/>
<path d="M10.8648 14.1355C10.7541 14.1469 10.6422 14.1347 10.5366 14.0995C10.4311 14.0643 10.3342 14.007 10.2525 13.9315C10.1708 13.8559 10.1062 13.7638 10.0628 13.6613C10.0195 13.5588 9.99851 13.4483 10.0013 13.337C9.99903 13.1355 10.0745 12.9409 10.2121 12.7935C10.2983 12.7104 10.4012 12.6466 10.514 12.6065C10.6269 12.5664 10.747 12.5508 10.8663 12.5609H19.071C19.1817 12.5493 19.2935 12.5614 19.3991 12.5965C19.5047 12.6316 19.6017 12.6889 19.6834 12.7644C19.7651 12.8399 19.8298 12.932 19.8731 13.0345C19.9164 13.1371 19.9373 13.2476 19.9345 13.3589C19.9367 13.5603 19.8615 13.7549 19.7242 13.9024C19.638 13.9856 19.5351 14.0494 19.4223 14.0896C19.3094 14.1298 19.1893 14.1455 19.07 14.1355H17.8723C17.3545 14.1355 16.9185 14.1281 16.5643 14.1132C16.3494 14.1094 16.1347 14.0947 15.9213 14.069V14.1579C16.2662 14.3159 16.5755 14.5423 16.8305 14.8233C17.1401 15.1584 17.3679 15.5607 17.4959 15.9986H19.0705C19.1812 15.987 19.2931 15.9992 19.3988 16.0343C19.5044 16.0694 19.6013 16.1267 19.6831 16.2023C19.7648 16.2779 19.8295 16.37 19.8728 16.4726C19.916 16.5752 19.9369 16.6858 19.934 16.7971C19.9362 16.9984 19.8609 17.1928 19.7237 17.3401C19.6376 17.4234 19.5346 17.4873 19.4218 17.5275C19.309 17.5677 19.1888 17.5833 19.0695 17.5732H17.6056C17.5593 18.1493 17.3899 18.7087 17.1088 19.2136C16.8277 19.7185 16.4414 20.1572 15.9761 20.4999C15.5527 20.812 15.0808 21.0523 14.5793 21.2111C14.0931 21.3687 13.5912 21.4728 13.0824 21.5214L18.0937 26.3331C18.2042 26.435 18.2927 26.5584 18.3538 26.6957C18.415 26.833 18.4474 26.9813 18.4493 27.1316C18.4569 27.3943 18.3613 27.6495 18.1831 27.8427C18.089 27.9405 17.9748 28.0168 17.8485 28.0666C17.7223 28.1164 17.5867 28.1384 17.4512 28.1312C17.2892 28.1313 17.1283 28.1051 16.9747 28.0535C16.793 27.9846 16.6298 27.8745 16.4978 27.732L10.5986 21.9628C10.4513 21.8352 10.3305 21.6799 10.243 21.5057C10.1705 21.3573 10.1326 21.1944 10.1323 21.0292C10.1282 20.901 10.1496 20.7732 10.1953 20.6533C10.241 20.5334 10.31 20.4238 10.3985 20.3308C10.4871 20.239 10.5942 20.1668 10.7126 20.119C10.831 20.0712 10.9581 20.0489 11.0857 20.0535H11.3742C11.8314 20.0536 12.2876 20.0129 12.7375 19.9316C13.1641 19.8585 13.5758 19.7162 13.9566 19.5105C14.3101 19.3177 14.6228 19.0579 14.8769 18.7455C15.1411 18.404 15.3096 17.9983 15.3651 17.5702H10.8637C10.753 17.5816 10.6412 17.5693 10.5356 17.5341C10.43 17.499 10.3332 17.4417 10.2515 17.3661C10.1698 17.2906 10.1051 17.1985 10.0618 17.096C10.0185 16.9935 9.99749 16.8829 10.0002 16.7717C9.99804 16.5703 10.0736 16.3759 10.2111 16.2287C10.2971 16.1454 10.4 16.0815 10.5129 16.0413C10.6257 16.0011 10.7459 15.9855 10.8653 15.9956H15.2559C14.8709 14.7538 13.74 14.133 11.8634 14.133L10.8648 14.1355Z" fill="#213368"/>
</svg>
