<svg width="32" height="31" viewBox="0 0 32 31" fill="none" xmlns="http://www.w3.org/2000/svg">
<path d="M23.1107 1.77734H8.88845C4.9611 1.77734 1.77734 4.9611 1.77734 8.88846V22.6027C1.77734 26.5301 4.9611 29.7139 8.88845 29.7139H23.1107C27.038 29.7139 30.2218 26.5301 30.2218 22.6027V8.88846C30.2218 4.9611 27.038 1.77734 23.1107 1.77734Z" fill="white" stroke="#213368" stroke-width="2" stroke-linecap="round" stroke-linejoin="round"/>
<path d="M8.49174 10.3217C8.38252 10.3332 8.27211 10.3213 8.16786 10.2868C8.06362 10.2522 7.96792 10.1958 7.8872 10.1214C7.80648 10.0469 7.74258 9.95606 7.69976 9.85493C7.65694 9.7538 7.6362 9.6447 7.63891 9.53491C7.63672 9.33622 7.71111 9.14431 7.84665 8.99902C7.93166 8.91711 8.03321 8.8543 8.14445 8.81479C8.2557 8.77529 8.3741 8.76 8.49174 8.76995H16.5791C16.6883 8.75834 16.7987 8.77018 16.903 8.8047C17.0072 8.83922 17.1029 8.89562 17.1836 8.97011C17.2643 9.04461 17.3282 9.13548 17.3709 9.23665C17.4137 9.33782 17.4343 9.44696 17.4314 9.55675C17.4337 9.75535 17.3595 9.94722 17.2242 10.0926C17.1392 10.1746 17.0377 10.2375 16.9264 10.2771C16.8152 10.3167 16.6968 10.3321 16.5791 10.3222H15.3986C14.8883 10.3222 14.4586 10.3147 14.1095 10.2999C13.8976 10.2962 13.686 10.2816 13.4756 10.2562V10.3435C13.8155 10.4993 14.1203 10.7224 14.3716 10.9993C14.6767 11.3295 14.9012 11.7259 15.0274 12.1574H16.5791C16.6883 12.1458 16.7987 12.1576 16.903 12.1921C17.0072 12.2267 17.1029 12.2831 17.1836 12.3575C17.2643 12.432 17.3282 12.5229 17.3709 12.6241C17.4137 12.7253 17.4343 12.8344 17.4314 12.9442C17.4337 13.1426 17.3595 13.3344 17.2242 13.4795C17.1393 13.5616 17.0378 13.6246 16.9265 13.6642C16.8152 13.7038 16.6968 13.7191 16.5791 13.7091H15.1365C15.091 14.277 14.924 14.8284 14.6469 15.3261C14.3698 15.8239 13.9891 16.2563 13.5305 16.5942C13.1129 16.9013 12.6477 17.1376 12.1534 17.2936C11.675 17.4484 11.181 17.5506 10.6804 17.5984L15.6201 22.3415C15.7288 22.442 15.8158 22.5636 15.8759 22.6989C15.936 22.8342 15.9679 22.9803 15.9696 23.1283C15.9766 23.3865 15.8826 23.6373 15.7075 23.8272C15.6147 23.9236 15.5022 23.9988 15.3778 24.0479C15.2533 24.097 15.1198 24.1187 14.9862 24.1117C14.8267 24.1117 14.6681 24.0858 14.5169 24.035C14.3379 23.967 14.1771 23.8585 14.047 23.718L8.23269 18.0347C8.08807 17.9094 7.96936 17.7571 7.88323 17.5862C7.81173 17.4401 7.77437 17.2796 7.77401 17.1169C7.76994 16.9905 7.79102 16.8646 7.83602 16.7464C7.88101 16.6283 7.94901 16.5202 8.0361 16.4286C8.12349 16.3379 8.229 16.2667 8.34575 16.2196C8.4625 16.1724 8.58788 16.1503 8.71371 16.1548H8.99816C9.44884 16.1551 9.89864 16.115 10.3422 16.035C10.7629 15.9628 11.169 15.8225 11.5444 15.6195C11.8929 15.4296 12.2011 15.1735 12.4516 14.8657C12.712 14.5289 12.878 14.1288 12.9326 13.7066H8.49174C8.38252 13.7181 8.27211 13.7062 8.16786 13.6716C8.06362 13.6371 7.96792 13.5807 7.8872 13.5062C7.80648 13.4318 7.74258 13.3409 7.69976 13.2398C7.65694 13.1387 7.6362 13.0296 7.63891 12.9198C7.63669 12.7213 7.7111 12.5295 7.84665 12.3844C7.93154 12.3023 8.03303 12.2393 8.1443 12.1997C8.25557 12.1601 8.37406 12.1448 8.49174 12.1548H12.8193C12.4401 10.9307 11.3253 10.3188 9.47509 10.3191L8.49174 10.3217Z" fill="#00BCF1"/>
<path d="M21.9316 17.5723L24.5805 20.2212L21.9316 22.8706" stroke="#00BAF2" stroke-width="2" stroke-linecap="round" stroke-linejoin="round"/>
<path d="M24.5214 20.2207H19.8672" stroke="#00BAF2" stroke-width="2" stroke-linecap="round" stroke-linejoin="round"/>
<path d="M21.9316 8.63477L24.5805 11.2837L21.9316 13.9331" stroke="#00BAF2" stroke-width="2" stroke-linecap="round" stroke-linejoin="round"/>
<path d="M24.5214 11.2832H19.8672" stroke="#00BAF2" stroke-width="2" stroke-linecap="round" stroke-linejoin="round"/>
</svg>
